<svg width="24" height="24" viewBox="0 0 24 24" fill="none" xmlns="http://www.w3.org/2000/svg">
<path d="M11.582 0.575989C9.31681 0.575989 7.10249 1.2477 5.21906 2.50617C3.33562 3.76464 1.86766 5.55335 1.00081 7.64612C0.13396 9.73888 -0.0928475 12.0417 0.349069 14.2634C0.790986 16.485 1.88178 18.5258 3.48351 20.1275C5.08524 21.7292 7.12597 22.82 9.34763 23.2619C11.5693 23.7038 13.8721 23.477 15.9649 22.6102C18.0576 21.7433 19.8464 20.2754 21.1048 18.3919C22.3633 16.5085 23.035 14.2942 23.035 12.029H20.745C20.745 13.8411 20.2077 15.6124 19.2009 17.1191C18.1942 18.6258 16.7633 19.8001 15.0891 20.4936C13.415 21.187 11.5728 21.3685 9.79558 21.0149C8.01833 20.6614 6.38582 19.7888 5.10449 18.5075C3.82316 17.2262 2.95057 15.5937 2.59705 13.8164C2.24353 12.0392 2.42497 10.197 3.11842 8.52284C3.81187 6.84871 4.98619 5.4178 6.49287 4.41106C7.99955 3.40433 9.77093 2.86699 11.583 2.86699V0.575989H11.582ZM19.348 1.72099C19.1418 1.72272 18.9445 1.80489 18.798 1.94999L17.398 3.33599L20.261 6.19899L21.661 4.81299C21.8041 4.66811 21.8844 4.47265 21.8844 4.26899C21.8844 4.06532 21.8041 3.86987 21.661 3.72499L19.886 1.94999C19.7441 1.80543 19.5506 1.72307 19.348 1.72099ZM16.588 4.14899L8.147 12.601V15.464H11.009L19.45 7.01199L16.588 4.14899Z" fill="#295F83"/>
</svg>
