<svg width="20" height="21" viewBox="0 0 20 21" fill="none" xmlns="http://www.w3.org/2000/svg">
<path opacity="0.6" d="M10 18.346C8.41775 18.346 6.87103 17.8768 5.55543 16.9978C4.23984 16.1187 3.21446 14.8693 2.60896 13.4075C2.00346 11.9457 1.84503 10.3371 2.15371 8.78529C2.4624 7.23344 3.22432 5.80798 4.34314 4.68916C5.46196 3.57034 6.88743 2.80841 8.43927 2.49973C9.99112 2.19105 11.5997 2.34948 13.0615 2.95498C14.5233 3.56048 15.7727 4.58586 16.6518 5.90145C17.5308 7.21704 18 8.76376 18 10.346C17.9971 12.4669 17.1533 14.5 15.6536 15.9997C14.154 17.4993 12.1208 18.3431 10 18.346ZM10 0.346012C8.02218 0.346012 6.08879 0.932502 4.44429 2.03132C2.7998 3.13013 1.51808 4.69192 0.761202 6.51918C0.00432521 8.34644 -0.193708 10.3571 0.192144 12.2969C0.577996 14.2367 1.5304 16.0186 2.92893 17.4171C4.32745 18.8156 6.10928 19.768 8.04909 20.1539C9.9889 20.5397 11.9996 20.3417 13.8268 19.5848C15.6541 18.8279 17.2159 17.5462 18.3147 15.9017C19.4135 14.2572 20 12.3238 20 10.346C20.0012 9.03246 19.7433 7.73157 19.2412 6.51778C18.7391 5.30399 18.0025 4.20113 17.0737 3.2723C16.1449 2.34348 15.042 1.60693 13.8282 1.10481C12.6144 0.602678 11.3135 0.344829 10 0.346012ZM12.59 6.34601L10 8.93601L7.41 6.34601L6 7.75601L8.59 10.346L6 12.936L7.41 14.346L10 11.756L12.59 14.346L14 12.936L11.41 10.346L14 7.75601L12.59 6.34601Z" fill="white"/>
</svg>
