<svg width="19" height="23" viewBox="0 0 19 23" fill="none" xmlns="http://www.w3.org/2000/svg">
<path d="M2.389 0.187012C1.78881 0.187012 1.21321 0.425434 0.788817 0.849829C0.364422 1.27422 0.125999 1.84983 0.125999 2.45001V20.55C0.125999 21.1502 0.364422 21.7258 0.788817 22.1502C1.21321 22.5746 1.78881 22.813 2.389 22.813H15.965C16.5647 22.8125 17.1396 22.574 17.5635 22.1498C17.9875 21.7257 18.2257 21.1507 18.226 20.551V6.97501L11.44 0.187012H2.389ZM2.389 2.45001H10.309V8.10701H15.966V20.551H2.389V2.45001ZM4.652 11.501V13.764H13.703V11.501H4.651H4.652ZM4.651 16.026V18.287H10.308V16.026H4.651Z" fill="#295F83"/>
</svg>
