<svg width="17" height="18" viewBox="0 0 17 18" fill="none" xmlns="http://www.w3.org/2000/svg">
<path fill-rule="evenodd" clip-rule="evenodd" d="M8.04192 2.091C9.80492 1.491 11.391 3.30184 12.412 4.09784C13.567 4.99784 14.912 5.85987 15.164 7.80487C15.2733 9.98246 15.254 12.1638 15.1054 14.339C14.6054 15.948 11.4959 15.4396 9.75188 15.4396C1.63888 15.4396 2.39416 16.3743 2.40716 9.66229C2.40716 7.12529 2.77 6.00595 4.247 4.84295C5.41568 3.79994 6.68712 2.87726 8.04192 2.091ZM7.56927 0.57147C5.84379 1.47097 4.24911 2.60241 2.83001 3.93377C1.04301 5.53377 0.823359 7.30308 0.815359 10.1711C0.807359 13.0391 0.333055 15.3454 2.45305 16.6154C3.65305 17.3334 8.52655 17.0432 10.2656 17.0392C13.1216 17.0392 15.4121 17.4745 16.4911 15.1965C16.9341 14.2595 16.938 8.60575 16.704 7.30975C16.272 4.92675 14.7626 3.88663 13.2626 2.73163C11.8796 1.67063 10.1984 -0.325553 7.56438 0.572447L7.56927 0.57147Z" fill="#F8F2F2"/>
</svg>
