<svg width="24" height="23" viewBox="0 0 24 23" fill="none" xmlns="http://www.w3.org/2000/svg">
<path d="M23.95 2.82303V15.84C23.9511 16.1253 23.8957 16.4079 23.787 16.6717C23.6783 16.9355 23.5185 17.1751 23.3168 17.3768C23.1151 17.5785 22.8754 17.7383 22.6117 17.847C22.3479 17.9557 22.0653 18.0111 21.78 18.01H15.272V15.84H21.785V2.82303H2.25501V15.84H8.76301V18.01H2.25501C1.97 18.0102 1.68776 17.9541 1.42443 17.8451C1.16109 17.7361 0.921821 17.5763 0.720291 17.3747C0.518762 17.1732 0.358926 16.9339 0.24992 16.6706C0.140914 16.4073 0.0848749 16.125 0.0850063 15.84V2.82303C0.0839488 2.53777 0.139356 2.25511 0.248034 1.99136C0.356712 1.7276 0.516513 1.48796 0.718227 1.28625C0.919941 1.08454 1.15958 0.924736 1.42333 0.816058C1.68709 0.707379 1.96974 0.651972 2.25501 0.65303H21.785C22.07 0.652899 22.3522 0.708937 22.6156 0.817944C22.8789 0.92695 23.1182 1.08679 23.3197 1.28832C23.5212 1.48984 23.6811 1.72912 23.7901 1.99245C23.8991 2.25579 23.9551 2.53802 23.955 2.82303H23.95ZM13.102 12.585H16.356L12.017 8.24603L7.67801 12.585H10.932V20.178H7.67801V22.353H16.356V20.183H13.102V12.585Z" fill="#295F83"/>
</svg>
