<svg width="26" height="24" viewBox="0 0 26 24" fill="none" xmlns="http://www.w3.org/2000/svg">
<path d="M20.692 0.389038H5.41V5.53704H20.692V0.389038ZM21.966 11.972C21.7107 11.9748 21.4604 11.9016 21.2468 11.7617C21.0332 11.6218 20.8661 11.4215 20.7666 11.1864C20.6672 10.9513 20.6399 10.6919 20.6883 10.4412C20.7367 10.1905 20.8586 9.95987 21.0384 9.77864C21.2182 9.5974 21.4479 9.47374 21.6982 9.42339C21.9485 9.37304 22.2081 9.39827 22.444 9.49587C22.6799 9.59347 22.8815 9.75903 23.023 9.9715C23.1646 10.184 23.2398 10.4337 23.239 10.689C23.2406 11.0286 23.1073 11.3549 22.8684 11.5963C22.6295 11.8376 22.3046 11.9742 21.965 11.976L21.966 11.972ZM18.143 20.986H7.953V14.547H18.144L18.143 20.986ZM21.966 6.82504H4.132C3.62729 6.82766 3.12804 6.9297 2.66278 7.12532C2.19752 7.32095 1.77536 7.60633 1.42043 7.96517C1.06549 8.324 0.784742 8.74925 0.594211 9.21662C0.403679 9.684 0.307103 10.1843 0.31 10.689V18.411H5.41V23.559H20.692V18.408H25.792V10.689C25.795 10.1839 25.6984 9.68314 25.5077 9.2154C25.317 8.74765 25.0359 8.3221 24.6805 7.96311C24.3251 7.60412 23.9025 7.31873 23.4367 7.12327C22.9709 6.92782 22.4711 6.82613 21.966 6.82404V6.82504Z" fill="#295F83"/>
</svg>
