<svg width="24" height="23" viewBox="0 0 24 23" fill="none" xmlns="http://www.w3.org/2000/svg">
<path d="M4.305 3.87896H9.917V9.49096H4.305V3.87896ZM19.272 3.87896V9.49096H13.663V3.87896H19.276H19.272ZM13.663 14.168H15.534V12.297H13.663V10.427H15.534V12.297H17.405V10.427H19.276V12.297H17.401V14.168H19.272V16.974H17.401V18.845H15.53V16.975H12.723V18.846H10.853V15.104H13.663V14.169V14.168ZM15.534 14.169V16.975H17.405V14.168H15.53L15.534 14.169ZM4.305 18.845V13.237H9.917V18.85H4.305V18.845ZM6.176 5.74996V7.61996H8.046V5.74996H6.176ZM15.53 5.74996V7.61996H17.401V5.74996H15.53ZM6.176 15.104V16.975H8.046V15.104H6.176ZM4.305 10.427H6.176V12.297H4.305V10.427ZM8.982 10.427H12.723V14.169H10.853V12.297H8.982V10.427ZM10.853 5.74996H12.723V9.49096H10.853V5.74996ZM2.434 2.00796V5.74996H0.563004V2.00796C0.563004 1.51174 0.760126 1.03585 1.11101 0.684966C1.46189 0.334086 1.93778 0.136963 2.434 0.136963L6.176 0.136963V2.00796H2.434ZM21.142 0.136963C21.6382 0.136963 22.1141 0.334086 22.465 0.684966C22.8159 1.03585 23.013 1.51174 23.013 2.00796V5.74996H21.142V2.00796H17.401V0.136963H21.143H21.142ZM2.434 16.975V20.717H6.176V22.587H2.434C1.93778 22.587 1.46189 22.3898 1.11101 22.039C0.760126 21.6881 0.563004 21.2122 0.563004 20.716L0.563004 16.975H2.434ZM21.142 20.717V16.975H23.013V20.717C23.013 21.2132 22.8159 21.6891 22.465 22.04C22.1141 22.3908 21.6382 22.588 21.142 22.588H17.401V20.716L21.142 20.717Z" fill="#295F83"/>
</svg>
